<?xml version="1.0" standalone="no"?>
<!DOCTYPE svg PUBLIC "-//W3C//DTD SVG 20010904//EN"
 "http://www.w3.org/TR/2001/REC-SVG-20010904/DTD/svg10.dtd">
<svg version="1.0" xmlns="http://www.w3.org/2000/svg"
 width="828.000000pt" height="828.000000pt" viewBox="0 0 828.000000 828.000000"
 preserveAspectRatio="xMidYMid meet">
<metadata>
Created by potrace 1.11, written by Peter Selinger 2001-2013
</metadata>
<g transform="translate(0.000000,828.000000) scale(0.100000,-0.100000)"
fill="#000000" stroke="none">
<path d="M3052 3889 c-113 -22 -238 -105 -301 -199 -104 -156 -109 -370 -11
-523 16 -26 30 -60 30 -74 0 -33 31 -79 78 -116 79 -61 267 -91 342 -54 18 10
36 17 41 17 4 0 36 -17 70 -38 86 -51 172 -88 266 -114 65 -18 104 -22 233
-22 185 1 277 21 473 105 121 52 145 59 262 79 146 25 287 130 349 260 93 194
59 398 -90 548 -180 180 -462 188 -652 17 -151 -136 -200 -365 -115 -545 15
-33 25 -70 24 -92 -2 -43 16 -83 53 -117 14 -14 26 -28 26 -32 0 -5 -30 -17
-67 -28 -215 -63 -415 -51 -599 36 l-52 24 61 62 c165 165 190 409 61 602 -69
105 -170 173 -299 200 -77 16 -118 17 -183 4z m224 -194 c107 -53 168 -152
168 -275 0 -86 -21 -143 -74 -203 -119 -137 -340 -137 -460 -1 -144 165 -76
421 132 496 70 25 162 18 234 -17z m1318 1 c174 -85 225 -306 107 -462 -50
-67 -144 -115 -227 -117 -157 -3 -284 94 -315 241 -32 158 60 310 221 363 48
16 156 3 214 -25z"/>
<path d="M2950 3567 c-39 -14 -80 -67 -80 -104 0 -39 30 -93 61 -108 110 -57
223 58 159 162 -30 50 -82 69 -140 50z"/>
<path d="M4255 3562 c-41 -26 -55 -44 -62 -85 -11 -71 47 -137 121 -137 52 0
105 51 112 105 6 51 -23 100 -71 121 -45 18 -64 18 -100 -4z"/>
</g>
</svg>
